<svg width="583" height="135" viewBox="0 0 583 135" fill="none" xmlns="http://www.w3.org/2000/svg">
<path d="M50.3646 58.0796L60.6741 115.77H40.0551L50.3646 58.0796Z" fill="#CCE7F6"/>
<path d="M53.4203 56.2941L88.7476 52.3044L70.5477 87.4484L53.4203 56.2941Z" fill="#82D2FF"/>
<path d="M46.1357 52.0123L16.6255 58.8543L30.7916 25.8928L46.1357 52.0123Z" fill="#467FC2"/>
<path d="M49.7029 48.272L34.7568 14.3809L56.7186 11.902L49.7029 48.272Z" fill="#82D2FF"/>
<path d="M53.3653 50.525L71.4834 25.4779L82.3292 39.7214L53.3653 50.525Z" fill="#467FC2"/>
<path d="M46.067 56.7591L25.3168 89.6765L10.5259 72.6008L46.067 56.7591Z" fill="#82D2FF"/>
<path d="M137.885 89L127.875 71.32H123.585V89H114.485V43.63H131.515C135.025 43.63 138.015 44.2583 140.485 45.515C142.955 46.7283 144.797 48.3967 146.01 50.52C147.267 52.6 147.895 54.94 147.895 57.54C147.895 60.53 147.028 63.2383 145.295 65.665C143.562 68.0483 140.983 69.695 137.56 70.605L148.415 89H137.885ZM123.585 64.495H131.19C133.66 64.495 135.502 63.91 136.715 62.74C137.928 61.5267 138.535 59.8583 138.535 57.735C138.535 55.655 137.928 54.0517 136.715 52.925C135.502 51.755 133.66 51.17 131.19 51.17H123.585V64.495ZM189.601 70.215C189.601 71.515 189.514 72.685 189.341 73.725H163.016C163.232 76.325 164.142 78.3617 165.746 79.835C167.349 81.3083 169.321 82.045 171.661 82.045C175.041 82.045 177.446 80.5933 178.876 77.69H188.691C187.651 81.1567 185.657 84.0167 182.711 86.27C179.764 88.48 176.146 89.585 171.856 89.585C168.389 89.585 165.269 88.8267 162.496 87.31C159.766 85.75 157.621 83.5617 156.061 80.745C154.544 77.9283 153.786 74.6783 153.786 70.995C153.786 67.2683 154.544 63.9967 156.061 61.18C157.577 58.3633 159.701 56.1967 162.431 54.68C165.161 53.1633 168.302 52.405 171.856 52.405C175.279 52.405 178.334 53.1417 181.021 54.615C183.751 56.0883 185.852 58.19 187.326 60.92C188.842 63.6067 189.601 66.705 189.601 70.215ZM180.176 67.615C180.132 65.275 179.287 63.4117 177.641 62.025C175.994 60.595 173.979 59.88 171.596 59.88C169.342 59.88 167.436 60.5733 165.876 61.96C164.359 63.3033 163.427 65.1883 163.081 67.615H180.176ZM206.838 60.465V77.885C206.838 79.0983 207.119 79.9867 207.683 80.55C208.289 81.07 209.286 81.33 210.673 81.33H214.898V89H209.178C201.508 89 197.673 85.2733 197.673 77.82V60.465H193.383V52.99H197.673V44.085H206.838V52.99H214.898V60.465H206.838ZM219.103 70.865C219.103 67.225 219.818 63.9967 221.248 61.18C222.721 58.3633 224.693 56.1967 227.163 54.68C229.676 53.1633 232.471 52.405 235.548 52.405C238.235 52.405 240.575 52.9467 242.568 54.03C244.605 55.1133 246.23 56.4783 247.443 58.125V52.99H256.608V89H247.443V83.735C246.273 85.425 244.648 86.8333 242.568 87.96C240.531 89.0433 238.17 89.585 235.483 89.585C232.45 89.585 229.676 88.805 227.163 87.245C224.693 85.685 222.721 83.4967 221.248 80.68C219.818 77.82 219.103 74.5483 219.103 70.865ZM247.443 70.995C247.443 68.785 247.01 66.9 246.143 65.34C245.276 63.7367 244.106 62.5233 242.633 61.7C241.16 60.8333 239.578 60.4 237.888 60.4C236.198 60.4 234.638 60.8117 233.208 61.635C231.778 62.4583 230.608 63.6717 229.698 65.275C228.831 66.835 228.398 68.6983 228.398 70.865C228.398 73.0317 228.831 74.9383 229.698 76.585C230.608 78.1883 231.778 79.4233 233.208 80.29C234.681 81.1567 236.241 81.59 237.888 81.59C239.578 81.59 241.16 81.1783 242.633 80.355C244.106 79.4883 245.276 78.275 246.143 76.715C247.01 75.1117 247.443 73.205 247.443 70.995ZM270.111 48.7C268.507 48.7 267.164 48.2017 266.081 47.205C265.041 46.165 264.521 44.8867 264.521 43.37C264.521 41.8533 265.041 40.5967 266.081 39.6C267.164 38.56 268.507 38.04 270.111 38.04C271.714 38.04 273.036 38.56 274.076 39.6C275.159 40.5967 275.701 41.8533 275.701 43.37C275.701 44.8867 275.159 46.165 274.076 47.205C273.036 48.2017 271.714 48.7 270.111 48.7ZM274.596 52.99V89H265.496V52.99H274.596ZM292.687 40.9V89H283.587V40.9H292.687Z" fill="black"/>
<path d="M322.431 47.27V64.235H339.656V68.005H322.431V85.23H341.606V89H317.881V43.5H341.606V47.27H322.431ZM367.211 52.86C371.458 52.86 374.924 54.1817 377.611 56.825C380.298 59.425 381.641 63.2167 381.641 68.2V89H377.156V68.72C377.156 64.8633 376.181 61.9167 374.231 59.88C372.324 57.8433 369.703 56.825 366.366 56.825C362.943 56.825 360.213 57.9083 358.176 60.075C356.139 62.2417 355.121 65.4267 355.121 69.63V89H350.571V53.51H355.121V59.555C356.248 57.3883 357.873 55.7417 359.996 54.615C362.119 53.445 364.524 52.86 367.211 52.86ZM423.814 69.435C423.814 70.995 423.771 72.1867 423.684 73.01H394.239C394.369 75.6967 395.019 77.9933 396.189 79.9C397.359 81.8067 398.897 83.2583 400.804 84.255C402.711 85.2083 404.791 85.685 407.044 85.685C409.991 85.685 412.461 84.97 414.454 83.54C416.491 82.11 417.834 80.1817 418.484 77.755H423.294C422.427 81.2217 420.564 84.06 417.704 86.27C414.887 88.4367 411.334 89.52 407.044 89.52C403.707 89.52 400.717 88.7833 398.074 87.31C395.431 85.7933 393.351 83.67 391.834 80.94C390.361 78.1667 389.624 74.9383 389.624 71.255C389.624 67.5717 390.361 64.3433 391.834 61.57C393.307 58.7967 395.366 56.6733 398.009 55.2C400.652 53.7267 403.664 52.99 407.044 52.99C410.424 52.99 413.371 53.7267 415.884 55.2C418.441 56.6733 420.391 58.6667 421.734 61.18C423.121 63.65 423.814 66.4017 423.814 69.435ZM419.199 69.305C419.242 66.6617 418.701 64.4083 417.574 62.545C416.491 60.6817 414.996 59.2733 413.089 58.32C411.182 57.3667 409.102 56.89 406.849 56.89C403.469 56.89 400.587 57.9733 398.204 60.14C395.821 62.3067 394.499 65.3617 394.239 69.305H419.199ZM436.688 59.815C437.685 57.605 439.202 55.8933 441.238 54.68C443.318 53.4667 445.853 52.86 448.843 52.86V57.605H447.608C444.315 57.605 441.672 58.4933 439.678 60.27C437.685 62.0467 436.688 65.015 436.688 69.175V89H432.138V53.51H436.688V59.815ZM470.573 52.99C473.91 52.99 476.813 53.77 479.283 55.33C481.753 56.89 483.53 58.8617 484.613 61.245V53.51H489.163V89.91C489.163 93.16 488.448 96.0417 487.018 98.555C485.632 101.068 483.682 102.997 481.168 104.34C478.655 105.727 475.795 106.42 472.588 106.42C468.038 106.42 464.247 105.337 461.213 103.17C458.223 101.003 456.36 98.0567 455.623 94.33H460.108C460.888 96.8 462.362 98.7717 464.528 100.245C466.738 101.718 469.425 102.455 472.588 102.455C474.885 102.455 476.943 101.957 478.763 100.96C480.583 100.007 482.013 98.5767 483.053 96.67C484.093 94.7633 484.613 92.51 484.613 89.91V81.135C483.487 83.5617 481.688 85.5767 479.218 87.18C476.792 88.74 473.91 89.52 470.573 89.52C467.323 89.52 464.398 88.7617 461.798 87.245C459.242 85.7283 457.227 83.5833 455.753 80.81C454.323 78.0367 453.608 74.83 453.608 71.19C453.608 67.55 454.323 64.365 455.753 61.635C457.227 58.8617 459.242 56.7383 461.798 55.265C464.398 53.7483 467.323 52.99 470.573 52.99ZM484.613 71.255C484.613 68.395 484.028 65.8817 482.858 63.715C481.688 61.5483 480.085 59.88 478.048 58.71C476.055 57.54 473.845 56.955 471.418 56.955C468.905 56.955 466.652 57.5183 464.658 58.645C462.665 59.7717 461.083 61.4183 459.913 63.585C458.787 65.7083 458.223 68.2433 458.223 71.19C458.223 74.0933 458.787 76.65 459.913 78.86C461.083 81.0267 462.665 82.695 464.658 83.865C466.652 84.9917 468.905 85.555 471.418 85.555C473.845 85.555 476.055 84.97 478.048 83.8C480.085 82.63 481.688 80.9617 482.858 78.795C484.028 76.6283 484.613 74.115 484.613 71.255ZM528.801 53.51L507.741 105.705H502.996L509.886 88.805L495.326 53.51H500.331L512.421 83.8L524.121 53.51H528.801Z" fill="#82D2FF"/>
</svg>
