<svg width="90" height="91" viewBox="0 0 90 91" fill="none" xmlns="http://www.w3.org/2000/svg">
<g clip-path="url(#clip0_240_302690)">
<path fill-rule="evenodd" clip-rule="evenodd" d="M10.6028 2.90611C11.5871 1.91244 12.7689 1.14161 14.0701 0.644703C15.3712 0.147796 16.762 -0.0638414 18.1501 0.0238155C19.5383 0.111472 20.8922 0.496422 22.1221 1.15315C23.352 1.80989 24.4298 2.72341 25.2841 3.83317L35.381 16.9485C37.2316 19.3544 37.8841 22.4882 37.1528 25.4457L34.076 37.9013C33.9169 38.5464 33.9255 39.2222 34.1009 39.863C34.2764 40.5037 34.6127 41.0878 35.0772 41.5584L48.8978 55.5325C49.3638 56.0032 49.9424 56.3438 50.5772 56.5212C51.212 56.6987 51.8815 56.7068 52.5203 56.5449L64.8335 53.4339C66.2769 53.0689 67.7835 53.0406 69.2394 53.351C70.6953 53.6613 72.0624 54.3023 73.2372 55.2254L86.2085 65.4288C90.8716 69.0972 91.2991 76.0644 87.1254 80.2789L81.3091 86.1597C77.1466 90.3685 70.9253 92.2169 65.126 90.1524C50.2826 84.8717 36.8056 76.2796 25.6947 65.0136C14.5532 53.7809 6.05564 40.1562 0.832219 25.1499C-1.20403 19.2918 0.624094 12.9957 4.78659 8.78698L10.6028 2.90611Z" fill="#212529"/>
</g>
<defs>
<clipPath id="clip0_240_302690">
<rect width="90" height="91" fill="white"/>
</clipPath>
</defs>
</svg>
