<svg width="170" height="171" viewBox="0 0 170 171" fill="none" xmlns="http://www.w3.org/2000/svg">
<g clip-path="url(#clip0_49_214328)">
<path fill-rule="evenodd" clip-rule="evenodd" d="M116.875 160.312C128.147 160.312 138.957 155.809 146.927 147.791C154.897 139.774 159.375 128.9 159.375 117.562C159.375 106.224 154.897 95.3509 146.927 87.3337C138.957 79.3165 128.147 74.8125 116.875 74.8125C105.603 74.8125 94.7933 79.3165 86.823 87.3337C78.8527 95.3509 74.375 106.224 74.375 117.562C74.375 128.9 78.8527 139.774 86.823 147.791C94.7933 155.809 105.603 160.312 116.875 160.312ZM170 117.562C170 131.735 164.403 145.327 154.44 155.349C144.477 165.37 130.965 171 116.875 171C102.785 171 89.2728 165.37 79.31 155.349C69.3471 145.327 63.75 131.735 63.75 117.562C63.75 103.39 69.3471 89.798 79.31 79.7765C89.2728 69.755 102.785 64.125 116.875 64.125C130.965 64.125 144.477 69.755 154.44 79.7765C164.403 89.798 170 103.39 170 117.562Z" fill="#212529"/>
<path d="M100.279 127.652C100.778 134.021 105.782 138.98 114.761 139.579V144.281H118.745V139.547C128.042 138.895 133.471 133.893 133.471 126.647C133.471 120.042 129.327 116.643 121.89 114.891L118.745 114.143V101.317C122.74 101.777 125.269 103.968 125.874 107.003H132.866C132.366 100.858 127.128 96.0592 118.745 95.5356V90.8438H114.761V95.6531C106.824 96.4333 101.426 101.232 101.426 108.029C101.426 114.036 105.443 117.862 112.126 119.422L114.761 120.074V133.669C110.681 133.049 107.971 130.783 107.366 127.652H100.279ZM114.729 113.181C110.808 112.272 108.683 110.402 108.683 107.602C108.683 104.46 110.978 102.108 114.761 101.424V113.181H114.729ZM119.319 121.154C124.089 122.265 126.278 124.061 126.278 127.235C126.278 130.858 123.547 133.337 118.745 133.797V121.025L119.319 121.154Z" fill="#212529"/>
<path d="M10.625 0C7.80708 0 5.10456 1.126 3.11199 3.1303C1.11942 5.13459 0 7.853 0 10.6875V96.1875C0 99.022 1.11942 101.74 3.11199 103.745C5.10456 105.749 7.80708 106.875 10.625 106.875H54.0069C54.6231 103.199 55.5475 99.6289 56.7481 96.1875H31.875C31.875 90.5185 29.6362 85.0817 25.651 81.0731C21.6659 77.0645 16.2608 74.8125 10.625 74.8125V32.0625C16.2608 32.0625 21.6659 29.8105 25.651 25.8019C29.6362 21.7933 31.875 16.3565 31.875 10.6875H138.125C138.125 16.3565 140.364 21.7933 144.349 25.8019C148.334 29.8105 153.739 32.0625 159.375 32.0625V69.768C163.413 73.4017 166.993 77.5485 170 82.1014V10.6875C170 7.853 168.881 5.13459 166.888 3.1303C164.895 1.126 162.193 0 159.375 0H10.625Z" fill="#5BC529"/>
<path d="M106.229 54.3246L106.25 53.4375C106.248 49.7566 105.301 46.1387 103.5 42.9341C101.7 39.7295 99.1075 37.0469 95.9739 35.146C92.8403 33.2452 89.2718 32.1905 85.614 32.0841C81.9561 31.9778 78.333 32.8234 75.0955 34.539C71.8579 36.2547 69.1157 38.7822 67.1344 41.8768C65.153 44.9715 63.9997 48.5283 63.7862 52.2029C63.5727 55.8775 64.3061 59.5453 65.9155 62.8511C67.5249 66.1568 69.9557 68.9885 72.9725 71.0719C82.1499 62.279 93.7313 56.4468 106.229 54.3246Z" fill="#5BC529"/>
</g>
<defs>
<clipPath id="clip0_49_214328">
<rect width="170" height="171" fill="white"/>
</clipPath>
</defs>
</svg>
