<svg width="90" height="91" viewBox="0 0 90 91" fill="none" xmlns="http://www.w3.org/2000/svg">
<g clip-path="url(#clip0_240_302692)">
<path d="M0 11.375C0 8.35816 1.18526 5.46489 3.29505 3.33166C5.40483 1.19843 8.26631 0 11.25 0L78.75 0C81.7337 0 84.5952 1.19843 86.7049 3.33166C88.8147 5.46489 90 8.35816 90 11.375V56.875C90 59.8918 88.8147 62.7851 86.7049 64.9183C84.5952 67.0516 81.7337 68.25 78.75 68.25H24.8288C23.337 68.2503 21.9065 68.8497 20.8519 69.9164L4.80375 86.1429C4.41073 86.5413 3.90966 86.8128 3.36395 86.9231C2.81824 87.0335 2.25243 86.9776 1.73812 86.7627C1.22381 86.5477 0.784136 86.1833 0.474735 85.7156C0.165333 85.2479 0.000118209 84.6979 0 84.1352L0 11.375ZM28.125 34.125C28.125 32.6166 27.5324 31.1699 26.4775 30.1033C25.4226 29.0367 23.9918 28.4375 22.5 28.4375C21.0082 28.4375 19.5774 29.0367 18.5225 30.1033C17.4676 31.1699 16.875 32.6166 16.875 34.125C16.875 35.6334 17.4676 37.0801 18.5225 38.1467C19.5774 39.2133 21.0082 39.8125 22.5 39.8125C23.9918 39.8125 25.4226 39.2133 26.4775 38.1467C27.5324 37.0801 28.125 35.6334 28.125 34.125ZM50.625 34.125C50.625 32.6166 50.0324 31.1699 48.9775 30.1033C47.9226 29.0367 46.4918 28.4375 45 28.4375C43.5082 28.4375 42.0774 29.0367 41.0225 30.1033C39.9676 31.1699 39.375 32.6166 39.375 34.125C39.375 35.6334 39.9676 37.0801 41.0225 38.1467C42.0774 39.2133 43.5082 39.8125 45 39.8125C46.4918 39.8125 47.9226 39.2133 48.9775 38.1467C50.0324 37.0801 50.625 35.6334 50.625 34.125ZM67.5 39.8125C68.9918 39.8125 70.4226 39.2133 71.4775 38.1467C72.5324 37.0801 73.125 35.6334 73.125 34.125C73.125 32.6166 72.5324 31.1699 71.4775 30.1033C70.4226 29.0367 68.9918 28.4375 67.5 28.4375C66.0082 28.4375 64.5774 29.0367 63.5225 30.1033C62.4676 31.1699 61.875 32.6166 61.875 34.125C61.875 35.6334 62.4676 37.0801 63.5225 38.1467C64.5774 39.2133 66.0082 39.8125 67.5 39.8125Z" fill="#212529"/>
</g>
<defs>
<clipPath id="clip0_240_302692">
<rect width="90" height="91" fill="white"/>
</clipPath>
</defs>
</svg>
