<svg width="170" height="170" viewBox="0 0 170 170" fill="none" xmlns="http://www.w3.org/2000/svg">
<g clip-path="url(#clip0_60_205628)">
<path d="M95.6253 85C90.6922 84.9994 85.8083 85.9803 81.258 87.8856C76.7077 89.7909 72.5819 92.5824 69.121 96.0978C65.6601 99.6131 62.9331 103.782 61.099 108.361C59.2649 112.941 58.3603 117.839 58.4378 122.772C58.4503 123.589 58.2743 124.397 57.9235 125.135C57.5727 125.872 57.0566 126.519 56.4152 127.025C55.7738 127.53 55.0245 127.881 54.2254 128.05C53.4263 128.22 52.599 128.202 51.8078 127.999C49.4519 127.396 46.9893 127.338 44.6077 127.831C42.2262 128.324 39.9888 129.355 38.066 130.844C36.1433 132.333 34.5861 134.242 33.5132 136.424C32.4404 138.607 31.8801 141.006 31.8753 143.438C31.8753 147.664 33.5544 151.718 36.5433 154.707C39.5322 157.696 43.5859 159.375 47.8128 159.375H138.125C140.95 159.359 143.744 158.78 146.343 157.671C148.941 156.563 151.293 154.947 153.26 152.919C155.227 150.891 156.769 148.491 157.798 145.86C158.826 143.228 159.319 140.418 159.249 137.594C159.178 134.77 158.545 131.988 157.386 129.411C156.228 126.834 154.567 124.514 152.501 122.587C150.435 120.66 148.006 119.164 145.355 118.187C142.704 117.21 139.885 116.771 137.063 116.896C135.839 116.959 134.63 116.597 133.643 115.871C132.655 115.145 131.949 114.099 131.644 112.912C129.583 104.925 124.927 97.8497 118.407 92.7973C111.887 87.745 103.874 85.0022 95.6253 85ZM48.0997 116.875C49.2951 106.103 54.115 96.0562 61.7692 88.3826C69.4234 80.709 79.4577 75.8637 90.2269 74.6411C100.996 73.4184 111.861 75.891 121.041 81.6534C130.22 87.4158 137.17 96.1261 140.75 106.356C148.953 107.028 156.578 110.846 162.03 117.012C167.481 123.179 170.336 131.215 169.997 139.438C169.658 147.662 166.151 155.435 160.211 161.132C154.27 166.828 146.356 170.006 138.125 170H47.8128C40.768 170 34.0117 167.201 29.0303 162.22C24.0489 157.239 21.2503 150.482 21.2503 143.438C21.2503 136.393 24.0489 129.636 29.0303 124.655C34.0117 119.674 40.768 116.875 47.8128 116.875H48.0997Z" fill="black" fill-opacity="0.81"/>
<path d="M58.4378 15.9375C58.4378 14.5285 58.9975 13.1773 59.9938 12.181C60.9901 11.1847 62.3413 10.625 63.7503 10.625C65.1593 10.625 66.5105 11.1847 67.5068 12.181C68.5031 13.1773 69.0628 14.5285 69.0628 15.9375V26.5625C69.0628 27.9715 68.5031 29.3227 67.5068 30.319C66.5105 31.3153 65.1593 31.875 63.7503 31.875C62.3413 31.875 60.9901 31.3153 59.9938 30.319C58.9975 29.3227 58.4378 27.9715 58.4378 26.5625V15.9375ZM18.6684 36.805C18.161 36.3149 17.7563 35.7287 17.4779 35.0806C17.1995 34.4324 17.0529 33.7353 17.0468 33.0299C17.0406 32.3246 17.1751 31.625 17.4422 30.9721C17.7093 30.3192 18.1038 29.7261 18.6026 29.2273C19.1014 28.7285 19.6945 28.334 20.3474 28.0669C21.0003 27.7998 21.6998 27.6654 22.4052 27.6715C23.1106 27.6776 23.8077 27.8242 24.4559 28.1026C25.104 28.381 25.6902 28.7857 26.1803 29.2931L33.7028 36.805C34.7003 37.8025 35.2608 39.1555 35.2608 40.5663C35.2608 41.977 34.7003 43.33 33.7028 44.3275C32.7053 45.325 31.3523 45.8855 29.9416 45.8855C28.5308 45.8855 27.1778 45.325 26.1803 44.3275L18.6684 36.805ZM101.32 29.2931C102.322 28.3254 103.664 27.7899 105.057 27.802C106.45 27.8141 107.782 28.3729 108.767 29.3578C109.752 30.3428 110.311 31.6753 110.323 33.0682C110.335 34.4611 109.8 35.8031 108.832 36.805L101.32 44.3275C100.826 44.8214 100.24 45.2132 99.5946 45.4806C98.9493 45.7479 98.2576 45.8855 97.5591 45.8855C96.8605 45.8855 96.1688 45.7479 95.5235 45.4806C94.8781 45.2132 94.2917 44.8214 93.7978 44.3275C93.3039 43.8336 92.9121 43.2472 92.6448 42.6018C92.3774 41.9565 92.2399 41.2648 92.2399 40.5663C92.2399 39.8677 92.3774 39.176 92.6448 38.5307C92.9121 37.8853 93.3039 37.2989 93.7978 36.805L101.32 29.2931ZM82.8966 65.1419C81.576 62.4053 79.6839 59.9837 77.348 58.0405C75.012 56.0974 72.2865 54.6777 69.3553 53.8774C66.424 53.0771 63.3552 52.9147 60.3559 53.4012C57.3565 53.8878 54.4964 55.0118 51.9684 56.6977C49.4405 58.3835 47.3034 60.5919 45.7014 63.1738C44.0995 65.7558 43.0699 68.6512 42.6821 71.6649C42.2943 74.6786 42.5573 77.7404 43.4533 80.6438C44.3494 83.5472 45.8577 86.2247 47.8766 88.4956C45.7622 91.4813 43.924 94.6794 42.3941 98.0369C38.7933 94.7835 35.9829 90.7509 34.1772 86.2465C32.3715 81.7422 31.6181 76.885 31.9744 72.0453C32.3308 67.2055 33.7875 62.5111 36.2335 58.3198C38.6795 54.1285 42.0502 50.551 46.0886 47.8601C50.1271 45.1692 54.7266 43.4359 59.5366 42.7924C64.3465 42.1489 69.2399 42.6121 73.8437 44.1468C78.4475 45.6815 82.64 48.2471 86.1018 51.648C89.5635 55.049 92.203 59.1954 93.8191 63.7712C90.0791 63.8881 86.4241 64.3556 82.8966 65.1419ZM35.2541 108.428C28.8791 110.713 23.3009 114.697 19.0828 119.818C18.5043 119.35 18.0308 118.765 17.6929 118.102C17.3549 117.439 17.1601 116.712 17.121 115.968C17.0819 115.225 17.1995 114.482 17.4661 113.787C17.7327 113.092 18.1423 112.461 18.6684 111.934L26.1803 104.423C26.9377 103.661 27.9082 103.146 28.9638 102.947C30.0195 102.748 31.1107 102.874 32.0934 103.308C33.0761 103.742 33.9043 104.463 34.4685 105.377C35.0328 106.291 35.3067 107.355 35.2541 108.428ZM15.9378 69.0625C17.3468 69.0625 18.698 69.6222 19.6943 70.6185C20.6906 71.6148 21.2503 72.966 21.2503 74.375C21.2503 75.784 20.6906 77.1352 19.6943 78.1315C18.698 79.1278 17.3468 79.6875 15.9378 79.6875H5.31281C3.90384 79.6875 2.55258 79.1278 1.55629 78.1315C0.559998 77.1352 0.000305176 75.784 0.000305176 74.375C0.000305176 72.966 0.559998 71.6148 1.55629 70.6185C2.55258 69.6222 3.90384 69.0625 5.31281 69.0625H15.9378Z" fill="#FFCE51"/>
</g>
<defs>
<clipPath id="clip0_60_205628">
<rect width="170" height="170" fill="white" transform="matrix(-1 0 0 1 170 0)"/>
</clipPath>
</defs>
</svg>
