<svg width="321" height="74" viewBox="0 0 321 74" fill="none" xmlns="http://www.w3.org/2000/svg">
<path d="M27.5 31.7124L33.1292 63.2124H21.8708L27.5 31.7124Z" fill="#D3F0C5"/>
<path d="M29.1681 30.7375L48.4575 28.559L38.52 47.7483L29.1681 30.7375Z" fill="#A3E883"/>
<path d="M25.1914 28.3997L9.07829 32.1355L16.8133 14.138L25.1914 28.3997Z" fill="#5BC529"/>
<path d="M27.1392 26.3571L18.9783 7.85197L30.9699 6.49848L27.1392 26.3571Z" fill="#A3E883"/>
<path d="M29.1385 27.5874L39.0314 13.9112L44.9534 21.6885L29.1385 27.5874Z" fill="#5BC529"/>
<path d="M25.153 30.9914L13.823 48.9649L5.74688 39.6413L25.153 30.9914Z" fill="#A3E883"/>
<path d="M77.586 46L72.35 36.752H70.106V46H65.346V22.268H74.254C76.09 22.268 77.654 22.5967 78.946 23.254C80.238 23.8887 81.2013 24.7613 81.836 25.872C82.4933 26.96 82.822 28.184 82.822 29.544C82.822 31.108 82.3687 32.5247 81.462 33.794C80.5553 35.0407 79.2067 35.902 77.416 36.378L83.094 46H77.586ZM70.106 33.182H74.084C75.376 33.182 76.3393 32.876 76.974 32.264C77.6087 31.6293 77.926 30.7567 77.926 29.646C77.926 28.558 77.6087 27.7193 76.974 27.13C76.3393 26.518 75.376 26.212 74.084 26.212H70.106V33.182ZM104.637 36.174C104.637 36.854 104.592 37.466 104.501 38.01H90.7313C90.8446 39.37 91.3206 40.4353 92.1593 41.206C92.9979 41.9767 94.0293 42.362 95.2533 42.362C97.0213 42.362 98.2793 41.6027 99.0273 40.084H104.161C103.617 41.8973 102.575 43.3933 101.033 44.572C99.4919 45.728 97.5993 46.306 95.3553 46.306C93.5419 46.306 91.9099 45.9093 90.4593 45.116C89.0313 44.3 87.9093 43.1553 87.0933 41.682C86.2999 40.2087 85.9032 38.5087 85.9032 36.582C85.9032 34.6327 86.2999 32.9213 87.0933 31.448C87.8866 29.9747 88.9973 28.8413 90.4253 28.048C91.8533 27.2547 93.4966 26.858 95.3553 26.858C97.1459 26.858 98.7439 27.2433 100.149 28.014C101.577 28.7847 102.677 29.884 103.447 31.312C104.241 32.7173 104.637 34.338 104.637 36.174ZM99.7073 34.814C99.6846 33.59 99.2426 32.6153 98.3813 31.89C97.5199 31.142 96.4659 30.768 95.2193 30.768C94.0406 30.768 93.0433 31.1307 92.2273 31.856C91.4339 32.5587 90.9466 33.5447 90.7653 34.814H99.7073ZM113.654 31.074V40.186C113.654 40.8207 113.801 41.2853 114.096 41.58C114.413 41.852 114.934 41.988 115.66 41.988H117.87V46H114.878C110.866 46 108.86 44.0507 108.86 40.152V31.074H106.616V27.164H108.86V22.506H113.654V27.164H117.87V31.074H113.654ZM120.069 36.514C120.069 34.61 120.443 32.9213 121.191 31.448C121.962 29.9747 122.993 28.8413 124.285 28.048C125.6 27.2547 127.062 26.858 128.671 26.858C130.077 26.858 131.301 27.1413 132.343 27.708C133.409 28.2747 134.259 28.9887 134.893 29.85V27.164H139.687V46H134.893V43.246C134.281 44.13 133.431 44.8667 132.343 45.456C131.278 46.0227 130.043 46.306 128.637 46.306C127.051 46.306 125.6 45.898 124.285 45.082C122.993 44.266 121.962 43.1213 121.191 41.648C120.443 40.152 120.069 38.4407 120.069 36.514ZM134.893 36.582C134.893 35.426 134.667 34.44 134.213 33.624C133.76 32.7853 133.148 32.1507 132.377 31.72C131.607 31.2667 130.779 31.04 129.895 31.04C129.011 31.04 128.195 31.2553 127.447 31.686C126.699 32.1167 126.087 32.7513 125.611 33.59C125.158 34.406 124.931 35.3807 124.931 36.514C124.931 37.6473 125.158 38.6447 125.611 39.506C126.087 40.3447 126.699 40.9907 127.447 41.444C128.218 41.8973 129.034 42.124 129.895 42.124C130.779 42.124 131.607 41.9087 132.377 41.478C133.148 41.0247 133.76 40.39 134.213 39.574C134.667 38.7353 134.893 37.738 134.893 36.582ZM146.75 24.92C145.912 24.92 145.209 24.6593 144.642 24.138C144.098 23.594 143.826 22.9253 143.826 22.132C143.826 21.3387 144.098 20.6813 144.642 20.16C145.209 19.616 145.912 19.344 146.75 19.344C147.589 19.344 148.28 19.616 148.824 20.16C149.391 20.6813 149.674 21.3387 149.674 22.132C149.674 22.9253 149.391 23.594 148.824 24.138C148.28 24.6593 147.589 24.92 146.75 24.92ZM149.096 27.164V46H144.336V27.164H149.096ZM158.559 20.84V46H153.799V20.84H158.559Z" fill="white"/>
<path d="M174.118 24.172V33.046H183.128V35.018H174.118V44.028H184.148V46H171.738V22.2H184.148V24.172H174.118ZM197.541 27.096C199.763 27.096 201.576 27.7873 202.981 29.17C204.387 30.53 205.089 32.5133 205.089 35.12V46H202.743V35.392C202.743 33.3747 202.233 31.8333 201.213 30.768C200.216 29.7027 198.845 29.17 197.099 29.17C195.309 29.17 193.881 29.7367 192.815 30.87C191.75 32.0033 191.217 33.6693 191.217 35.868V46H188.837V27.436H191.217V30.598C191.807 29.4647 192.657 28.6033 193.767 28.014C194.878 27.402 196.136 27.096 197.541 27.096ZM227.149 35.766C227.149 36.582 227.126 37.2053 227.081 37.636H211.679C211.747 39.0413 212.087 40.2427 212.699 41.24C213.311 42.2373 214.115 42.9967 215.113 43.518C216.11 44.0167 217.198 44.266 218.377 44.266C219.918 44.266 221.21 43.892 222.253 43.144C223.318 42.396 224.021 41.3873 224.361 40.118H226.877C226.423 41.9313 225.449 43.416 223.953 44.572C222.479 45.7053 220.621 46.272 218.377 46.272C216.631 46.272 215.067 45.8867 213.685 45.116C212.302 44.3227 211.214 43.212 210.421 41.784C209.65 40.3333 209.265 38.6447 209.265 36.718C209.265 34.7913 209.65 33.1027 210.421 31.652C211.191 30.2013 212.268 29.0907 213.651 28.32C215.033 27.5493 216.609 27.164 218.377 27.164C220.145 27.164 221.686 27.5493 223.001 28.32C224.338 29.0907 225.358 30.1333 226.061 31.448C226.786 32.74 227.149 34.1793 227.149 35.766ZM224.735 35.698C224.757 34.3153 224.474 33.1367 223.885 32.162C223.318 31.1873 222.536 30.4507 221.539 29.952C220.541 29.4533 219.453 29.204 218.275 29.204C216.507 29.204 214.999 29.7707 213.753 30.904C212.506 32.0373 211.815 33.6353 211.679 35.698H224.735ZM233.883 30.734C234.405 29.578 235.198 28.6827 236.263 28.048C237.351 27.4133 238.677 27.096 240.241 27.096V29.578H239.595C237.873 29.578 236.49 30.0427 235.447 30.972C234.405 31.9013 233.883 33.454 233.883 35.63V46H231.503V27.436H233.883V30.734ZM251.608 27.164C253.353 27.164 254.872 27.572 256.164 28.388C257.456 29.204 258.385 30.2353 258.952 31.482V27.436H261.332V46.476C261.332 48.176 260.958 49.6833 260.21 50.998C259.484 52.3127 258.464 53.3213 257.15 54.024C255.835 54.7493 254.339 55.112 252.662 55.112C250.282 55.112 248.298 54.5453 246.712 53.412C245.148 52.2787 244.173 50.7373 243.788 48.788H246.134C246.542 50.08 247.312 51.1113 248.446 51.882C249.602 52.6527 251.007 53.038 252.662 53.038C253.863 53.038 254.94 52.7773 255.892 52.256C256.844 51.7573 257.592 51.0093 258.136 50.012C258.68 49.0147 258.952 47.836 258.952 46.476V41.886C258.362 43.1553 257.422 44.2093 256.13 45.048C254.86 45.864 253.353 46.272 251.608 46.272C249.908 46.272 248.378 45.8753 247.018 45.082C245.68 44.2887 244.626 43.1667 243.856 41.716C243.108 40.2653 242.734 38.588 242.734 36.684C242.734 34.78 243.108 33.114 243.856 31.686C244.626 30.2353 245.68 29.1247 247.018 28.354C248.378 27.5607 249.908 27.164 251.608 27.164ZM258.952 36.718C258.952 35.222 258.646 33.9073 258.034 32.774C257.422 31.6407 256.583 30.768 255.518 30.156C254.475 29.544 253.319 29.238 252.05 29.238C250.735 29.238 249.556 29.5327 248.514 30.122C247.471 30.7113 246.644 31.5727 246.032 32.706C245.442 33.8167 245.148 35.1427 245.148 36.684C245.148 38.2027 245.442 39.54 246.032 40.696C246.644 41.8293 247.471 42.702 248.514 43.314C249.556 43.9033 250.735 44.198 252.05 44.198C253.319 44.198 254.475 43.892 255.518 43.28C256.583 42.668 257.422 41.7953 258.034 40.662C258.646 39.5287 258.952 38.214 258.952 36.718ZM282.065 27.436L271.049 54.738H268.567L272.171 45.898L264.555 27.436H267.173L273.497 43.28L279.617 27.436H282.065Z" fill="#5BC529"/>
</svg>
