<svg width="90" height="91" viewBox="0 0 90 91" fill="none" xmlns="http://www.w3.org/2000/svg">
<path d="M0.28125 20.2191C0.848352 17.7066 2.24244 15.4632 4.23518 13.8565C6.22793 12.2498 8.70123 11.3748 11.25 11.375H78.75C81.2988 11.3748 83.7721 12.2498 85.7648 13.8565C87.7576 15.4632 89.1516 17.7066 89.7188 20.2191L45 47.8546L0.28125 20.2191ZM0 26.7142V67.1182L32.6419 46.8821L0 26.7142ZM38.0306 50.2206L1.07438 73.1242C1.98746 75.0709 3.42859 76.7154 5.23002 77.8663C7.03146 79.0172 9.11911 79.6271 11.25 79.625H78.75C80.8805 79.6255 82.9674 79.0142 84.7678 77.8624C86.5682 76.7105 88.0081 75.0654 88.92 73.1185L51.9637 50.2149L45 54.5204L38.0306 50.2149V50.2206ZM57.3581 46.8878L90 67.1182V26.7142L57.3581 46.8821V46.8878Z" fill="#212529"/>
</svg>
